# xmcd
#
# Track frame offsets:
#	150
#	14895
#	29023
#	45903
#	60365
#	76738
#	96205
#	111990
#	126435
#	142895
#
# Disc length: 2203 seconds
# Revision: 7
# Processed by: cddbd v1.5.2PL0 Copyright (c) Steve Scherf et al.
# Submitted via: dBpowerAMP V12.0
#
DISCID=8108990a
DTITLE=Pam Tillis - Homeward Looking Angel
DYEAR=1992
DGENRE=Country
TTITLE0=How Gone Is Goodbye
TTITLE1=Shake The Sugar Tree
TTITLE2=Do You Know Where Your Man Is
TTITLE3=Cleopatra, Queen Of Denial
TTITLE4=Love Is Only Human
TTITLE5=Rough And Tumble Heart
TTITLE6=Let That Pony Run
TTITLE7=Fine, Fine, Very Fine Love
TTITLE8=We've Tried Everything Else
TTITLE9=Homeward Looking Angel
EXTD=
EXTT0=
EXTT1=
EXTT2=
EXTT3=
EXTT4=
EXTT5=
EXTT6=
EXTT7=
EXTT8=
EXTT9=
PLAYORDER=
